<?xml version="1.0" encoding="utf-8"?>
<!-- Generator: Adobe Illustrator 22.1.0, SVG Export Plug-In . SVG Version: 6.00 Build 0)  -->
<svg version="1.1"
	 id="Layer_1" xmlns:cc="http://creativecommons.org/ns#" xmlns:dc="http://purl.org/dc/elements/1.1/" xmlns:inkscape="http://www.inkscape.org/namespaces/inkscape" xmlns:rdf="http://www.w3.org/1999/02/22-rdf-syntax-ns#" xmlns:sodipodi="http://sodipodi.sourceforge.net/DTD/sodipodi-0.dtd" xmlns:svg="http://www.w3.org/2000/svg"
	 xmlns="http://www.w3.org/2000/svg" xmlns:xlink="http://www.w3.org/1999/xlink" x="0px" y="0px" width="437.3px" height="437.4px"
	 viewBox="0 0 437.3 437.4" style="enable-background:new 0 0 437.3 437.4;" xml:space="preserve">
<style type="text/css">
	.st0{fill:#4A4A49;}
</style>
<path class="st0" d="M24.6,0C17.9-0.3,12.1,1.8,7.3,6.4S0,16.7,0,23.4v31.2C0,67,9.5,77.2,21.9,78c181.4,10.9,326.5,156,337.5,337.5
	c0.8,12.4,11.1,22,23.5,21.9h31.1c6.7,0,12.5-2.5,17-7.3c4.6-4.8,6.7-10.7,6.3-17.4C424.9,190.4,246.9,12.4,24.6,0L24.6,0z
	 M25.3,137.4c-6.8-0.6-12.8,1.4-17.8,6.1c-5,4.6-7.4,10.4-7.4,17.3v31.2C0,204,9.1,214,21.2,215.2c106.3,10,191.1,94.6,201.1,200.9
	c1.1,12.1,11.1,21.3,23.2,21.3h31.2c6.8,0,12.7-2.6,17.3-7.6c4.6-5,6.6-11,6.1-17.8C287.9,266,171.4,149.5,25.3,137.4L25.3,137.4z
	 M64,309.1c-35.4,0-64,28.8-64,64.1c0,35.4,28.6,64.1,64,64.1c35.4,0,64.1-28.6,64.1-64c0,0,0-0.1,0-0.1c0-35.4-28.6-64.1-64-64.1
	C64.1,309.1,64,309.1,64,309.1L64,309.1z"/>
</svg>
