<?xml version="1.0" encoding="utf-8"?>
<!-- Generator: Adobe Illustrator 22.1.0, SVG Export Plug-In . SVG Version: 6.00 Build 0)  -->
<svg version="1.1" id="Layer_1" xmlns="http://www.w3.org/2000/svg" xmlns:xlink="http://www.w3.org/1999/xlink" x="0px" y="0px"
	 width="13.7px" height="15px" viewBox="0 0 13.7 15" style="enable-background:new 0 0 13.7 15;" xml:space="preserve">
<style type="text/css">
	.st0{fill:#4A4A49;}
</style>
<g transform="translate(-88.749289,-131.31133)">
	<g>
		<path class="st0" d="M100.2,131.3c-1.2,0-2.2,1-2.2,2.3c0,0.2,0,0.3,0.1,0.5l-5.7,3c-0.4-0.3-0.9-0.5-1.4-0.5
			c-1.2,0-2.2,1-2.2,2.3c0,1.3,1,2.3,2.2,2.3c0.5,0,1-0.2,1.4-0.5l5.7,3c0,0.2-0.1,0.3-0.1,0.5c0,1.3,1,2.3,2.2,2.3
			c1.2,0,2.2-1,2.2-2.3c0-1.2-1-2.2-2.2-2.2c-0.5,0-1,0.2-1.4,0.5l-5.7-3c0.1-0.2,0.1-0.3,0.1-0.5c0-0.2,0-0.3-0.1-0.5l5.7-3
			c0.4,0.3,0.9,0.5,1.3,0.5c1.2,0,2.2-1,2.2-2.3C102.5,132.3,101.5,131.3,100.2,131.3L100.2,131.3z"/>
	</g>
</g>
</svg>
